<svg xmlns="http://www.w3.org/2000/svg" width="430" height="430" fill="none" viewBox="0 0 430 430">
    <g stroke-linejoin="round" stroke-width="12">
        <path stroke="currentColor"
            d="M30 110c0-16.568 13.432-30 30-30h310c16.569 0 30 13.432 30 30v210c0 16.569-13.431 30-30 30H60c-16.568 0-30-13.431-30-30z" />
        <path stroke="#0A84FF" stroke-linecap="round"
            d="M131 188.611v-1.389c0-12.273 9.949-22.222 22.222-22.222h19.445c12.273 0 22.222 9.949 22.222 22.222v5.556c0 12.273-9.949 22.222-22.222 22.222h-9.723M131 240v2.778c0 12.273 9.949 22.222 22.222 22.222h22.222c12.273 0 22.223-9.949 22.223-22.222v-5.556c0-12.273-9.95-22.222-22.223-22.222h-29.166m81.389-50h38.888c18.41 0 33.334 14.924 33.334 33.333v33.334c0 18.409-14.924 33.333-33.334 33.333h-38.888z" />
    </g>
</svg>