<svg xmlns="http://www.w3.org/2000/svg" viewBox="0 0 2510.01 707.43">
    <defs>
        <style>
            .eb8a0ece-8b72-410e-9559-d003496ff34c {
                fill: #0a84ff;
            }

            .a147ced8-32e4-4bfa-b836-5aab04d968fa {
                fill: #fefcfd;
            }

            .b0a6e100-829a-476e-94e8-7ea479c9cff1 {
                fill: #fefafc;
            }

            .b24b5df3-7770-455e-8d2c-030e0f906681 {
                fill: #fff;
            }
        </style>
    </defs>
    <g id="fc26fcd3-3744-4c25-a30c-1d565dfa3d40" data-name="Digitale">
        <path class="eb8a0ece-8b72-410e-9559-d003496ff34c"
            d="M247,867.6c-25.83-20.39-75.12-68.78-89.37-98.17a205.72,205.72,0,0,1-14.38-39.81c-3.41-13.51-12-23-24-29.41-10.82-5.78-21.86-11.14-32.69-16.9-7.16-3.8-9.15-10-5.48-17.31q12.31-24.51,25-48.82c3.89-7.47,10.77-9.54,18.57-5.63,13.86,7,27.65,14,41.43,21.15,16,8.28,29.26,3,38.95-9.19,9.16-11.51,10.75-31.53-.72-42.39a33.4,33.4,0,0,0-7.81-5.57c-16.88-8.68-33.79-17.3-50.66-26-7.19-3.71-8.52-7.26-5-14.54,5.7-11.64,11.78-23.09,17.58-34.68,6.22-12.41,2.81-22.74-9.47-29.11q-8.31-4.31-16.69-8.53c-4.46-2.26-6-5.28-3.39-10.07,4.08-7.53,8-15.14,11.69-22.87,2.16-4.55,5-5.61,9.4-3.36,7.61,3.93,15.26,7.78,22.85,11.74,4.28,2.23,5,5.68,2.94,9.85-3.12,6.21-6.35,12.36-9.44,18.57a20.46,20.46,0,0,0,8.82,27.55c19.28,10.09,38.59,20.12,58.11,29.72,6.14,3,7.14,6.5,3.8,11.94-3.21,5.24-2.26,8.86,3.67,11.4a147.25,147.25,0,0,1,16.07,8.21c4.53,2.65,7,1.43,9-3.12a183.15,183.15,0,0,1,8.54-16.68c2.61-4.5,1.35-7-2.93-9.37-10.64-5.93-10.66-6.38-5.24-17,1.9-3.7,3.83-7.39,5.67-11.13,2.7-5.47,1.76-9.73-4.06-12.54-4.79-2.31-9.5-4.8-14.22-7.27-7.29-3.82-9.2-9.77-5.56-17.24,5-10.17,11-19.8,14.73-30.58,1.65-4.7,1.17-9-.23-13.44q-8.53-26.77-17.31-53.49c-2-6.09-5.51-10.81-11.67-13.68-9.23-4.3-18.2-9.14-27.22-13.87-6.89-3.62-7.83-6-4.53-12.72q8-16.18,16.45-32.13c3.22-6.08,7-7.14,13.13-4q15.83,7.95,31.52,16.14c6.33,3.32,7.55,7.29,4.37,13.61-4.16,8.27-7.83,16.88-12.82,24.62-4.6,7.12-4.88,13.84-2.31,21.49,5.65,16.88,11.05,33.84,16.42,50.82A25.6,25.6,0,0,0,282,429.53c15.69,8,31.32,16,47,24v0c15.86,8.12,31.59,16.52,47.64,24.26,8.35,4,17.26,5.87,26.51,2,11.72-4.93,20.89-25,17.59-37.2-2.27-8.42-6.14-14.61-14.72-17.48-3.26-1.09-6.18-3.15-9.3-4.66-4-1.95-5.5-4.56-3.14-8.88q4.83-8.82,9.17-17.92c2-4.1,4.71-4.63,8.43-2.73,5.56,2.84,11.1,5.74,16.69,8.53,4.08,2,5.22,4.94,3.11,9-1.48,2.88-2.57,6-4.49,8.6-6.7,9-4.9,18.1-1,27.33a16.77,16.77,0,0,0,8.6,9.42"
            transform="translate(-20.17 -285.41)" />
        <path class="eb8a0ece-8b72-410e-9559-d003496ff34c"
            d="M353,408.84c-2.85,5.55-5.79,11.06-8.51,16.67s-6.9,7.32-12.41,4.57c-12.41-6.19-24.7-12.63-37-18.95-4.75-2.43-6.12-5.94-3.62-10.81,6.44-12.54,12.77-25.14,19.33-37.62,2.58-4.9,6.91-5.9,11.7-3.51q18,9,35.8,18.34c5.39,2.84,6.7,7.74,3.9,13.4C359.15,396.94,356,402.87,353,408.84Z"
            transform="translate(-20.17 -285.41)" />
        <path class="eb8a0ece-8b72-410e-9559-d003496ff34c"
            d="M79.59,581.43c-5.65-2.46-6-6.28-3.45-11.19q4.33-8.31,8.54-16.68c6.07-12,3.2-20.67-8.89-26.9l-6.17-3.18a5.83,5.83,0,0,1-3.42-4.1c-.48-2.45,6.9-16.92,9.13-18.24a3.29,3.29,0,0,1,3.26,0,23.8,23.8,0,0,1,2.49,1.21c4.9,2.6,12.25,5.11,14.45,9.18.56,2.51-4,8.66-6.14,13.64-3.1,7.2.68,18.85,7.91,22.75,6.72,3.62,13.47,7.22,20.39,10.42,6.19,2.87,5.41,7.15,1.24,13.22a68.87,68.87,0,0,0-7.46,14.85c-2.54,6.72-6,8.94-11.51,5.47"
            transform="translate(-20.17 -285.41)" />
        <rect class="eb8a0ece-8b72-410e-9559-d003496ff34c" x="189.49" y="401.05" width="52.73" height="52.78" rx="12.5"
            transform="translate(-283.16 139.29) rotate(-62.88)" />
        <rect class="eb8a0ece-8b72-410e-9559-d003496ff34c" x="24.83" y="576.63" width="34.33" height="34.71" rx="4.17"
            transform="translate(-525.98 75.17) rotate(-62.88)" />
        <rect class="eb8a0ece-8b72-410e-9559-d003496ff34c" x="122.96" y="373.96" width="28.41" height="28.53" rx="4.17"
            transform="translate(-291.07 47.91) rotate(-62.88)" />
        <path class="eb8a0ece-8b72-410e-9559-d003496ff34c"
            d="M407.25,367c-5.94,11.31-3.91,12.33-17.05,5.48-1.83-1-3.68-1.92-5.53-2.84-3.73-1.84-5.22-4.39-2.68-8.26.38-.58.62-1.23.95-1.84,9-16.54,4.26-16.66,23.26-7.31,5.22,2.58,7.06,5.4,3.28,10.49A29.37,29.37,0,0,0,407.25,367Z"
            transform="translate(-20.17 -285.41)" />
        <rect class="eb8a0ece-8b72-410e-9559-d003496ff34c" x="290.86" y="290.58" width="27.95" height="27.96" rx="4.17"
            transform="translate(-125.37 151.62) rotate(-62.88)" />
        <rect class="eb8a0ece-8b72-410e-9559-d003496ff34c" x="147.91" y="311.22" width="16.67" height="16.67" rx="4.17"
            transform="translate(-219.57 27.53) rotate(-62.88)" />
        <rect class="eb8a0ece-8b72-410e-9559-d003496ff34c" x="448.49" y="388.99" width="21.74" height="21.69" rx="4.17"
            transform="translate(-126.09 341) rotate(-62.88)" />
        <rect class="eb8a0ece-8b72-410e-9559-d003496ff34c" x="58.1" y="465.36" width="25.69" height="26.07" rx="4.17"
            transform="translate(-407.35 38.03) rotate(-62.88)" />
        <rect class="a147ced8-32e4-4bfa-b836-5aab04d968fa" x="155.45" y="650.05" width="45.37" height="44.93" rx="4.17"
            transform="translate(-521.8 239.06) rotate(-62.88)" />
        <rect class="b0a6e100-829a-476e-94e8-7ea479c9cff1" x="290.31" y="461.67" width="32.03" height="31.88" rx="4.17"
            transform="translate(-278.58 247.11) rotate(-62.88)" />
    </g>
    <g id="f24d49a2-5efe-462a-93a6-a87684f3f2e7" data-name="Logo">
        <path id="ad0bc02a-65a7-4bc9-9219-0e3cadff14cf" data-name="D&apos;Agostino&lt;Tracciato composto&gt;"
            class="b24b5df3-7770-455e-8d2c-030e0f906681"
            d="M2409.88,780c21.9,0,40.8,7.8,56.4,23.4s23.4,34.5,23.4,56.4-7.5,40.8-23.4,56.7c-15.6,15.6-34.5,23.1-56.4,23.1s-41.1-7.5-56.7-23.1-23.1-34.8-23.1-56.7,7.5-40.8,23.1-56.4C2369.08,787.5,2388,780,2409.88,780Zm0-40.2c-33.3,0-61.5,12-84.6,35.4-23.4,23.4-35.4,51.6-35.4,84.6,0,33.3,12,61.2,35.4,84.6s51.3,35.4,84.6,35.4,61.2-12,84.6-35.4c23.7-23.1,35.7-51.3,35.7-84.6,0-33-12-61.2-35.7-84.6C2471.08,751.8,2443.18,739.8,2409.88,739.8Zm-202.8,0V883.5l-159.6-143.7v60.6L2247,979.8v-240Zm-158.7,39.6-39.9-39.6v240l39.9-40.2Zm-189.9-39.6v240h40.2V780h79.8V739.8ZM1750.19,879.9a28.8,28.8,0,0,1,21.3,9c5.7,6,9,12.9,9,21a30.19,30.19,0,0,1-2.4,11.7,26.75,26.75,0,0,1-6.3,9.6,28,28,0,0,1-9.9,6.3,30,30,0,0,1-11.7,2.1v40.2c19.5,0,36-6.9,49.5-20.4q20.7-20.7,20.7-49.5t-20.7-49.5c-13.5-13.5-30-20.4-49.5-20.4h-59.7a29,29,0,0,1-21.6-9,30.35,30.35,0,0,1,0-42.3,27.33,27.33,0,0,1,9.9-6.6,30,30,0,0,1,11.7-2.1V739.8q-29.25,0-49.5,20.7c-13.5,13.8-20.4,30-20.4,49.2,0,19.5,6.9,36,20.4,49.8,13.5,13.5,30,20.4,49.5,20.4ZM1495.78,780c21.9,0,40.81,7.8,56.4,23.4s23.41,34.5,23.41,56.4-7.5,40.8-23.41,56.7c-15.59,15.6-34.5,23.1-56.4,23.1s-41.1-7.5-56.7-23.1-23.1-34.8-23.1-56.7,7.5-40.8,23.1-56.4C1455,787.5,1473.88,780,1495.78,780Zm0-40.2c-33.3,0-61.5,12-84.6,35.4-23.4,23.4-35.4,51.6-35.4,84.6,0,33.3,12,61.2,35.4,84.6s51.3,35.4,84.6,35.4,61.21-12,84.61-35.4c23.7-23.1,35.7-51.3,35.7-84.6,0-33-12-61.2-35.7-84.6C1557,751.8,1529.09,739.8,1495.78,739.8Zm-225.5,140.1h60.31l39.9-39.9H1270.28Zm33.31,52.8a81.7,81.7,0,0,1-33.31,6.9c-21.9,0-41.1-7.5-56.7-23.1s-23.1-34.8-23.1-56.7,7.5-40.8,23.1-56.4c15.9-15.9,34.8-23.4,56.7-23.4,22.2,0,40.81,7.8,56.4,23.4l28.81-28.2a124.46,124.46,0,0,0-38.4-26.1,117.48,117.48,0,0,0-46.81-9.3c-33.3,0-61.5,11.7-84.6,35.4-23.7,23.4-35.4,51.6-35.4,84.6,0,33.3,12,61.2,35.4,84.6s51.3,35.4,84.6,35.4a109.83,109.83,0,0,0,30-3.9,104,104,0,0,0,27.3-10.8,122.24,122.24,0,0,0,23.7-17.1,112.23,112.23,0,0,0,19.2-22.2l-39.9-13.2A83.64,83.64,0,0,1,1303.59,932.7Zm-128.1,7.2h-44.4l19.8,39.9h44.7ZM1040.18,900h0l35.41-70.5,35.1,70.5h45l-80.1-160.2-120,240H1000l20.41-40.2Zm-58-86.4a126.14,126.14,0,0,0-26.1-38.4A123.92,123.92,0,0,0,918,749.4a116.23,116.23,0,0,0-46.5-9.6h-79.8l39.9,40.2h39.9a82.15,82.15,0,0,1,30.9,6,83.64,83.64,0,0,1,25.5,17.4,82,82,0,0,1,17.4,25.5,78.93,78.93,0,0,1,0,61.8,86.51,86.51,0,0,1-17.1,25.5,78.65,78.65,0,0,1-25.5,17.4,82.55,82.55,0,0,1-31.2,6h-39.9l-39.9,40.2h79.8a115.17,115.17,0,0,0,46.5-9.6,121.8,121.8,0,0,0,38.4-25.8,130.87,130.87,0,0,0,25.8-38.4,119.4,119.4,0,0,0,0-92.4Z"
            transform="translate(-20.17 -285.41)" />
        <path id="e52352fe-e3cd-491d-b864-3282ba982792" data-name="Gambetto A&lt;Tracciato&gt;"
            class="b24b5df3-7770-455e-8d2c-030e0f906681"
            d="M988.8,739.8h27.86a6.59,6.59,0,0,1,5.91,9.53L1004.86,785h0l-21.68-35.16A6.6,6.6,0,0,1,988.8,739.8Z"
            transform="translate(-20.17 -285.41)" />
        <path id="ac727d96-14f5-4d72-ae21-d94a9a47bd4d" data-name="Angelo &lt;Tracciato composto&gt;"
            class="b24b5df3-7770-455e-8d2c-030e0f906681"
            d="M1813.49,487.36c21.9,0,40.8,7.8,56.4,23.4s23.4,34.5,23.4,56.4-7.5,40.8-23.4,56.7c-15.6,15.6-34.5,23.1-56.4,23.1s-41.1-7.5-56.7-23.1-23.1-34.8-23.1-56.7,7.5-40.8,23.1-56.4C1772.69,494.86,1791.59,487.36,1813.49,487.36Zm0-40.2c-33.3,0-61.5,12-84.6,35.4-23.4,23.4-35.4,51.6-35.4,84.6,0,33.3,12,61.2,35.4,84.6s51.3,35.4,84.6,35.4,61.2-12,84.6-35.4c23.7-23.1,35.7-51.3,35.7-84.6,0-33-12-61.2-35.7-84.6C1874.69,459.16,1846.79,447.16,1813.49,447.16Zm-257.71,0v185.7l39.9-40.2V447.16Zm39.9,199.8-39.9,40.2h159.91V647ZM1368,547.36v39.9h159.9v-39.9H1368Zm0-100.2,39.9,40.2h120v-40.2Zm0,236.7v3.3h159.9V647h-120Zm-98.7-96.6h60.3l39.9-39.9h-100.2Zm33.3,52.8a81.66,81.66,0,0,1-33.3,6.9c-21.9,0-41.11-7.5-56.7-23.1s-23.11-34.8-23.11-56.7,7.5-40.8,23.11-56.4c15.9-15.9,34.8-23.4,56.7-23.4,22.2,0,40.8,7.8,56.4,23.4l28.8-28.2a124.46,124.46,0,0,0-38.4-26.1,117.44,117.44,0,0,0-46.8-9.3c-33.3,0-61.5,11.7-84.61,35.4-23.7,23.4-35.4,51.6-35.4,84.6,0,33.3,12,61.2,35.4,84.6s51.31,35.4,84.61,35.4a109.71,109.71,0,0,0,30-3.9,103.72,103.72,0,0,0,27.3-10.8,122.24,122.24,0,0,0,23.7-17.1,112.23,112.23,0,0,0,19.2-22.2l-39.9-13.2A83.64,83.64,0,0,1,1302.59,640.06Zm-200.1-192.9v143.7l-159.6-143.7v60.6l199.5,179.4v-240Zm-90.9,200.1h-44.4l19.8,39.9h44.7Zm-135.3-39.9h0l35.4-70.5,35.1,70.5h45l-80.1-160.2-120,240h44.4l20.4-40.2Z"
            transform="translate(-20.17 -285.41)" />
        <path id="ac18647e-060b-4e92-94ba-15727d27406f" data-name="D &lt;Traccia&gt;"
            class="b24b5df3-7770-455e-8d2c-030e0f906681"
            d="M751.8,615c-15-33.43-34.11-62.07-59.35-87.31A281.53,281.53,0,0,0,605.83,469,264.2,264.2,0,0,0,500.1,447.16H363.68l45.7,91.4H500.1a187,187,0,0,1,70.26,13.64,190.18,190.18,0,0,1,58,39.57,186.48,186.48,0,0,1,39.56,58,179.52,179.52,0,0,1,0,140.52,196.74,196.74,0,0,1-38.88,58c-16.37,17.06-36.15,30-58,39.57a187.85,187.85,0,0,1-70.94,13.64H409.38l-90.72,91.4H500.1A261.77,261.77,0,0,0,605.83,971a276.87,276.87,0,0,0,87.31-58.66c24.55-25.24,43.65-53.88,58.66-87.31,14.32-32.74,21.14-67.52,21.14-105S766.12,647.7,751.8,615Z"
            transform="translate(-20.17 -285.41)" />
        <path id="bd231795-c2a0-443e-b4ac-3b35eef04bdd" data-name="A &lt;Traccia&gt;"
            class="b24b5df3-7770-455e-8d2c-030e0f906681"
            d="M283.2,811.4h0l80.48-160.29L443.49,811.4H545.8L363.68,447.16,90.84,992.84H191.79l46.39-91.4Z"
            transform="translate(-20.17 -285.41)" />
    </g>
</svg>