<svg width="64" height="64" viewBox="0 0 64 64" version="1.1" xmlns="http://www.w3.org/2000/svg" xmlns:xlink="http://www.w3.org/1999/xlink" xml:space="preserve" xmlns:serif="http://www.serif.com/">
    <style>
    #favicon {
      fill: #111;
      fill-rule: evenodd;
      clip-rule:evenodd;
      stroke-linejoin:round;
      stroke-miterlimit:2;
      @media (prefers-color-scheme: dark) {
        fill: #fff;
      }
    }
  </style>
    <g id="favicon" transform="matrix(0.0752263,0,0,0.0752263,2.16862,-16.0789)">
        <path d="M247.043,867.597C221.208,847.212 171.924,798.826 157.665,769.431C151.477,756.677 146.751,743.381 143.286,729.623C139.883,716.111 131.333,706.633 119.279,700.205C108.456,694.434 97.417,689.071 86.586,683.313C79.431,679.508 77.443,673.295 81.11,665.996C89.317,649.659 97.664,633.39 106.11,617.176C110.002,609.706 116.878,607.64 124.679,611.549C138.543,618.495 152.334,625.587 166.111,632.703C182.127,640.976 195.372,635.705 205.064,623.511C214.215,611.999 215.805,591.984 204.337,581.121C201.92,578.831 199.392,577.021 196.528,575.549C179.65,566.871 162.74,558.254 145.872,549.556C138.682,545.849 137.346,542.301 140.917,535.016C146.62,523.38 152.704,511.932 158.504,500.343C164.718,487.927 161.312,477.598 149.034,471.235C143.486,468.36 137.921,465.517 132.343,462.699C127.876,460.443 126.361,457.423 128.952,452.63C133.025,445.099 136.973,437.491 140.642,429.758C142.801,425.208 145.672,424.15 150.035,426.401C157.645,430.329 165.295,434.178 172.887,438.14C177.167,440.374 177.927,443.823 175.829,447.994C172.71,454.196 169.484,460.346 166.385,466.558C161.33,476.697 165.041,488.793 175.212,494.115C194.489,504.2 213.802,514.229 233.323,523.826C239.464,526.845 240.458,530.329 237.121,535.769C233.909,541.006 234.862,544.63 240.791,547.172C246.308,549.54 251.668,552.353 256.859,555.382C261.393,558.028 263.823,556.811 265.862,552.264C268.417,546.571 271.268,540.981 274.398,535.583C277.013,531.081 275.746,528.599 271.47,526.213C260.831,520.277 260.811,519.829 266.229,509.235C268.126,505.526 270.061,501.836 271.903,498.1C274.6,492.635 273.658,488.367 267.84,485.561C263.045,483.251 258.338,480.757 253.622,478.29C246.325,474.472 244.419,468.516 248.06,461.049C253.015,450.883 259.022,441.247 262.794,430.473C264.438,425.775 263.963,421.43 262.561,417.033C256.865,399.178 251.103,381.342 245.251,363.537C243.251,357.453 239.737,352.727 233.578,349.858C224.354,345.559 215.376,340.723 206.361,335.988C199.467,332.366 198.528,329.961 201.827,323.275C207.15,312.483 212.638,301.769 218.276,291.139C221.499,285.065 225.242,283.997 231.413,287.097C241.96,292.396 252.475,297.764 262.929,303.245C269.258,306.564 270.478,310.532 267.3,316.854C263.143,325.125 259.472,333.726 254.478,341.466C249.878,348.594 249.603,355.306 252.165,362.96C257.815,379.841 263.222,396.804 268.592,413.775C270.876,420.993 275.335,426.126 282.044,429.533C297.727,437.495 313.362,445.551 329.016,453.57L329.034,453.538C344.893,461.661 360.622,470.055 376.667,477.798C385.022,481.83 393.928,483.666 403.184,479.769C414.896,474.836 424.071,454.785 420.772,442.571C418.501,434.153 414.626,427.965 406.046,425.087C402.792,423.995 399.87,421.941 396.746,420.429C392.722,418.482 391.247,415.871 393.607,411.553C396.826,405.666 399.902,399.692 402.785,393.634C404.734,389.535 407.495,388.999 411.209,390.899C416.775,393.742 422.309,396.643 427.905,399.426C431.983,401.455 433.121,404.367 431.01,408.467C429.526,411.348 428.439,414.519 426.525,417.075C419.821,426.03 421.617,435.166 425.477,444.405C427.198,448.526 429.709,451.77 434.08,453.818L247.043,867.597ZM149.699,678.75C148.65,680.798 149.46,683.31 151.508,684.358L184.08,701.042C186.128,702.091 188.639,701.281 189.689,699.233L206.572,666.272C207.62,664.224 206.81,661.712 204.762,660.664L172.19,643.98C170.142,642.931 167.631,643.741 166.582,645.789L149.699,678.75ZM286.735,480.885C285.685,482.934 286.495,485.445 288.544,486.494L309.5,497.227C311.548,498.277 314.059,497.467 315.109,495.418L325.912,474.325C326.962,472.277 326.152,469.766 324.103,468.717L303.147,457.983C301.098,456.933 298.588,457.744 297.539,459.792L286.735,480.885ZM352.969,408.838C350.124,414.392 347.183,419.9 344.461,425.513C341.74,431.122 337.561,432.835 332.047,430.08C319.64,423.885 307.354,417.451 295.01,411.131C290.256,408.696 288.888,405.189 291.391,400.317C297.833,387.78 304.161,375.181 310.718,362.704C313.297,357.797 317.626,356.795 322.424,359.191C334.417,365.18 346.357,371.28 358.217,377.528C363.605,380.366 364.916,385.273 362.117,390.932C359.145,396.939 356.025,402.873 352.969,408.838ZM79.587,581.432C73.944,578.973 73.575,575.149 76.139,570.241C79.03,564.705 81.867,559.14 84.682,553.565C90.749,541.552 87.875,532.891 75.791,526.66C73.735,525.6 71.681,524.536 69.622,523.483C67.898,522.6 66.599,521.373 66.205,519.382C65.72,516.933 73.101,502.456 75.335,501.137C76.528,500.432 77.522,500.702 78.587,501.136C79.441,501.485 80.266,501.912 81.083,502.348C85.978,504.955 93.331,507.464 95.525,511.535C96.089,514.036 91.544,520.191 89.393,525.169C86.285,532.365 90.07,544.015 97.3,547.918C104.018,551.542 110.767,555.137 117.689,558.342C123.882,561.21 123.101,565.486 118.93,571.56C115.783,576.142 113.435,581.206 111.472,586.408C108.935,593.134 105.525,595.35 99.959,591.88L79.587,581.432ZM186.047,427.752L198.687,403.075C201.835,396.93 209.368,394.5 215.512,397.648L240.238,410.312C246.383,413.46 248.814,420.993 245.666,427.138L233.026,451.815C229.879,457.96 222.346,460.39 216.2,457.242L191.475,444.578C185.33,441.43 182.9,433.897 186.047,427.752ZM20.628,597.639L32.48,574.5C33.529,572.452 36.04,571.642 38.088,572.691L61.561,584.714C63.61,585.763 64.419,588.274 63.37,590.322L51.518,613.461C50.469,615.509 47.959,616.32 45.91,615.27L22.437,603.247C20.389,602.199 19.579,599.687 20.628,597.639ZM119.889,390.651L129.039,372.787C130.088,370.739 132.599,369.929 134.647,370.978L152.624,380.186C154.673,381.235 155.483,383.746 154.433,385.794L145.284,403.658C144.234,405.707 141.723,406.517 139.675,405.467L121.698,396.259C119.65,395.211 118.84,392.699 119.889,390.651ZM407.246,366.991C401.308,378.303 403.339,379.324 390.205,372.472C388.365,371.513 386.525,370.554 384.665,369.633C380.936,367.787 379.452,365.244 381.988,361.368C382.365,360.793 382.612,360.135 382.942,359.528C391.924,342.992 387.204,342.868 406.204,352.224C411.425,354.795 413.261,357.621 409.485,362.705C408.536,363.983 407.982,365.554 407.246,366.991ZM287.921,306.914L296.863,289.456C297.912,287.408 300.423,286.598 302.471,287.647L319.94,296.594C321.987,297.643 322.797,300.155 321.749,302.203L312.807,319.661C311.757,321.709 309.246,322.519 307.198,321.47L289.73,312.522C287.682,311.474 286.872,308.962 287.921,306.914ZM146.932,319.463L150.731,312.045C151.781,309.996 154.291,309.187 156.34,310.236L163.758,314.035C165.807,315.085 166.616,317.595 165.567,319.644L161.767,327.062C160.718,329.11 158.207,329.92 156.159,328.871L148.741,325.071C146.693,324.022 145.883,321.511 146.932,319.463ZM446.654,400.852L452.763,388.925C453.813,386.876 456.323,386.066 458.372,387.116L470.257,393.203C472.305,394.252 473.115,396.763 472.066,398.811L465.956,410.739C464.907,412.788 462.396,413.597 460.348,412.549L448.463,406.461C446.414,405.412 445.604,402.901 446.654,400.852ZM55.386,480.172L63.298,464.724C64.347,462.676 66.858,461.866 68.907,462.915L84.689,470.999C86.738,472.048 87.548,474.559 86.498,476.608L78.586,492.055C77.537,494.104 75.026,494.914 72.978,493.864L57.195,485.78C55.146,484.731 54.337,482.22 55.386,480.172Z" style="fill:rgb(51,102,255);"/>
        <path d="M363.683,447.16L500.103,447.161C537.617,447.161 572.404,454.664 605.827,468.988C638.568,483.312 667.899,503.092 692.454,527.648C717.692,552.886 736.79,581.535 751.797,614.957C766.121,647.698 772.942,682.485 772.942,720C772.942,757.516 766.121,792.303 751.797,825.043C736.79,858.466 717.692,887.115 693.136,912.352C668.58,936.908 639.25,956.689 605.827,971.012C573.087,985.336 537.617,992.84 500.103,992.84L318.664,992.84L409.383,901.439L500.103,901.439C525.34,901.439 549.213,896.664 571.04,887.795C592.867,878.247 612.649,865.288 629.019,848.235C645.39,831.182 658.349,812.083 667.899,790.256C677.448,767.747 682.223,744.555 682.223,720C682.223,695.445 677.448,672.253 667.899,649.744C658.349,627.917 645.39,608.818 628.337,591.766C611.967,575.395 592.186,561.753 570.359,552.204C548.531,543.337 524.658,538.562 500.103,538.562L409.383,538.562L545.802,811.401L443.488,811.401L363.682,651.108L283.195,811.401L238.176,901.438L191.794,992.839L90.842,992.839L363.683,447.16Z" style="fill-rule:nonzero;"/>
    </g>
</svg>
